<?xml version="1.0" encoding="UTF-8"?>
<svg xmlns="http://www.w3.org/2000/svg" xmlns:xlink="http://www.w3.org/1999/xlink" viewBox="0 0 96 96" width="2rem" height="2rem">
<g id="surface19500086">
<path style=" stroke:none;fill-rule:nonzero;fill:rgb(92.54902%,94.117647%,94.509804%);fill-opacity:1;" d="M 48 96 C 21.492188 96 0 74.507812 0 48 C 0 21.492188 21.492188 0 48 0 C 74.507812 0 96 21.492188 96 48 C 96 74.507812 74.507812 96 48 96 Z M 48 96 "/>
<path style=" stroke:none;fill-rule:nonzero;fill:rgb(90.588236%,29.803923%,23.529412%);fill-opacity:1;" d="M 39.601562 20 C 28.808594 20 20 28.808594 20 39.601562 C 20 50.390625 28.808594 59.199219 39.601562 59.199219 C 44.496094 59.199219 48.964844 57.375 52.40625 54.386719 L 53.601562 55.578125 L 53.601562 59.199219 L 69.242188 74.839844 C 70.785156 76.386719 73.296875 76.386719 74.839844 74.839844 C 76.386719 73.296875 76.386719 70.785156 74.839844 69.242188 L 59.199219 53.601562 L 55.578125 53.601562 L 54.386719 52.40625 C 57.375 48.964844 59.199219 44.496094 59.199219 39.601562 C 59.199219 28.808594 50.390625 20 39.601562 20 Z M 39.601562 25.601562 C 47.363281 25.601562 53.601562 31.835938 53.601562 39.601562 C 53.601562 47.363281 47.363281 53.601562 39.601562 53.601562 C 31.835938 53.601562 25.601562 47.363281 25.601562 39.601562 C 25.601562 31.835938 31.835938 25.601562 39.601562 25.601562 Z M 39.601562 25.601562 "/>
</g>
</svg>
